<?xml version="1.0" standalone="no"?>
<!DOCTYPE svg PUBLIC "-//W3C//DTD SVG 20010904//EN"
 "http://www.w3.org/TR/2001/REC-SVG-20010904/DTD/svg10.dtd">
<svg version="1.0" xmlns="http://www.w3.org/2000/svg"
 width="3300.000000pt" height="2400.000000pt" viewBox="0 0 3300.000000 2400.000000"
 preserveAspectRatio="xMidYMid meet">

<g transform="translate(0.000000,2400.000000) scale(0.100000,-0.100000)"
fill="#000000" stroke="none">
<path d="M0 12000 l0 -12000 16500 0 16500 0 0 12000 0 12000 -16500 0 -16500
0 0 -12000z m17545 3209 c572 -991 1045 -1808 1050 -1816 8 -10 1978 -307
7160 -1078 3933 -586 7151 -1065 7153 -1065 1 0 2 -124 2 -275 0 -255 -1 -275
-17 -275 -10 0 -3175 513 -7033 1139 -3858 626 -7016 1138 -7017 1137 -1 -1
33 -62 75 -136 43 -74 93 -162 111 -195 18 -33 73 -130 123 -216 l89 -156 107
-22 c4093 -808 13546 -2671 13553 -2671 5 0 9 -113 9 -265 0 -246 -1 -265 -17
-265 -10 1 -3035 641 -6723 1424 -3688 783 -6706 1422 -6708 1421 -2 -1 636
-1109 1416 -2461 l1419 -2459 -2898 -3 c-1595 -1 -4203 -1 -5798 0 l-2898 3
1520 2633 c835 1448 1518 2634 1516 2636 -2 2 -3091 -822 -6864 -1830 -3773
-1008 -6861 -1834 -6862 -1834 -2 0 -3 29 -3 64 0 53 3 66 18 70 9 3 3108 827
6887 1831 3779 1004 6879 1829 6891 1834 14 6 470 788 1355 2320 733 1271
1336 2311 1339 2311 3 0 474 -811 1045 -1801z m-3961 -8713 c70 -29 97 -86 59
-128 -27 -30 -49 -22 -62 22 -14 48 -43 70 -94 70 -101 0 -147 -91 -90 -178 8
-14 54 -42 106 -67 143 -66 187 -114 187 -202 0 -103 -79 -173 -206 -181 -120
-8 -195 32 -209 110 -6 29 -3 40 14 57 33 33 49 26 62 -24 7 -29 22 -54 42
-71 27 -23 38 -26 89 -22 72 5 107 34 115 95 9 69 -13 95 -132 153 -115 57
-158 96 -175 161 -23 85 14 164 95 200 49 23 151 25 199 5z m2451 -11 c57 -28
111 -88 137 -153 18 -47 22 -76 22 -162 -1 -165 -46 -254 -157 -310 -102 -51
-236 -38 -320 31 -98 81 -135 285 -81 444 22 62 94 136 155 158 61 22 190 18
244 -8z m1519 0 c62 -30 79 -98 33 -130 -34 -24 -57 -19 -63 14 -27 132 -234
116 -306 -23 -17 -32 -22 -65 -26 -147 -5 -125 12 -200 59 -254 46 -52 141
-76 228 -59 l31 7 0 82 c0 46 -3 90 -6 99 -3 8 -21 18 -40 22 -24 4 -34 12
-34 25 0 18 9 19 125 19 118 0 125 -1 125 -20 0 -12 -7 -20 -17 -20 -42 -1
-48 -16 -53 -127 l-5 -107 -60 -19 c-90 -28 -232 -20 -301 16 -64 33 -118 94
-141 161 -21 61 -24 210 -5 272 27 92 103 170 194 200 61 20 211 14 262 -11z
m4660 0 c62 -30 79 -98 33 -130 -34 -24 -57 -19 -63 14 -27 132 -234 116 -306
-23 -17 -32 -22 -65 -26 -147 -5 -125 12 -200 59 -254 46 -52 141 -76 228 -59
l31 7 0 82 c0 46 -3 90 -6 99 -3 8 -21 18 -40 22 -24 4 -34 12 -34 25 0 18 9
19 125 19 118 0 125 -1 125 -20 0 -12 -7 -20 -17 -20 -42 -1 -48 -16 -53 -127
l-5 -107 -60 -19 c-90 -28 -232 -20 -301 16 -64 33 -118 94 -141 161 -21 61
-24 210 -5 272 27 92 103 170 194 200 61 20 211 14 262 -11z m-11100 -6 c71
-26 139 -99 161 -172 19 -65 19 -209 0 -274 -18 -60 -80 -135 -139 -166 -38
-20 -57 -22 -238 -25 -195 -3 -198 -3 -198 17 0 15 6 21 23 21 12 0 33 7 45
16 22 15 22 18 22 274 0 284 -1 290 -61 290 -22 0 -29 5 -29 20 0 19 7 20 180
20 156 0 186 -3 234 -21z m594 -31 c11 -29 59 -161 107 -293 49 -132 95 -248
103 -257 8 -10 26 -18 39 -18 16 0 23 -6 23 -20 0 -19 -7 -20 -130 -20 -123 0
-130 1 -130 20 0 14 7 20 23 20 54 1 63 38 29 125 l-20 50 -122 0 -123 0 -18
-50 c-33 -94 -24 -125 37 -125 17 0 24 -6 24 -20 0 -19 -7 -20 -115 -20 -104
0 -115 2 -115 18 0 12 11 21 33 27 31 10 34 15 146 313 l114 302 38 0 c36 0
38 -2 57 -52z m699 24 c125 -66 117 -242 -14 -310 l-32 -17 79 -122 c66 -100
87 -124 115 -134 22 -8 35 -20 35 -31 0 -15 -9 -18 -50 -18 -91 0 -108 14
-196 154 -78 125 -79 126 -116 126 l-38 0 0 -104 c0 -116 9 -136 61 -136 22 0
29 -5 29 -20 0 -19 -7 -20 -140 -20 -133 0 -140 1 -140 20 0 15 7 20 29 20 60
0 61 6 61 290 0 284 -1 290 -61 290 -23 0 -29 4 -29 21 0 20 3 21 183 17 166
-3 186 -5 224 -26z m483 8 c0 -14 -7 -20 -23 -20 -12 0 -33 -7 -45 -16 -21
-14 -22 -22 -22 -160 l0 -145 109 125 c61 69 115 135 121 146 15 28 6 50 -20
50 -13 0 -20 7 -20 20 0 19 7 20 105 20 96 0 105 -2 105 -19 0 -12 -9 -21 -24
-25 -31 -8 -228 -216 -223 -236 2 -8 52 -82 112 -163 76 -106 117 -153 141
-165 20 -9 34 -23 34 -34 0 -15 -8 -18 -50 -18 -87 0 -113 21 -230 190 -40 58
-76 108 -79 112 -4 4 -23 -6 -44 -23 l-37 -30 0 -89 c0 -80 2 -90 22 -104 12
-9 33 -16 45 -16 16 0 23 -6 23 -20 0 -19 -7 -20 -140 -20 -133 0 -140 1 -140
20 0 15 7 20 29 20 60 0 61 6 61 290 0 284 -1 290 -61 290 -22 0 -29 5 -29 20
0 19 7 20 140 20 133 0 140 -1 140 -20z m1150 0 c0 -14 -7 -20 -23 -20 -12 0
-33 -7 -45 -16 -22 -15 -22 -18 -22 -274 0 -256 0 -259 22 -274 12 -9 33 -16
45 -16 16 0 23 -6 23 -20 0 -19 -7 -20 -140 -20 -133 0 -140 1 -140 20 0 14 7
20 23 20 12 0 33 7 45 16 22 15 22 18 22 274 0 256 0 259 -22 274 -12 9 -33
16 -45 16 -16 0 -23 6 -23 20 0 19 7 20 140 20 133 0 140 -1 140 -20z m474 -1
c71 -26 139 -99 161 -172 19 -65 19 -209 0 -274 -18 -60 -80 -135 -139 -166
-38 -20 -57 -22 -238 -25 -195 -3 -198 -3 -198 17 0 15 6 21 23 21 12 0 33 7
45 16 22 15 22 18 22 274 0 284 -1 290 -61 290 -22 0 -29 5 -29 20 0 19 7 20
180 20 156 0 186 -3 234 -21z m736 -59 c0 -78 -1 -80 -24 -80 -20 0 -25 7 -35
45 -6 25 -19 49 -30 55 -11 5 -60 10 -110 10 l-91 0 0 -120 0 -120 110 0 110
0 0 -25 0 -25 -110 0 -110 0 0 -135 0 -135 106 0 c58 0 114 5 125 10 11 6 24
30 30 55 10 38 15 45 35 45 23 0 24 -2 24 -80 l0 -80 -255 0 c-248 0 -255 1
-255 20 0 15 7 20 29 20 60 0 61 6 61 290 0 256 0 259 -22 274 -12 9 -33 16
-45 16 -16 0 -23 6 -23 20 0 19 7 20 240 20 l240 0 0 -80z m1510 0 c0 -78 -1
-80 -24 -80 -20 0 -25 7 -35 45 -6 25 -19 49 -30 55 -11 5 -60 10 -110 10
l-91 0 0 -130 0 -130 110 0 110 0 0 -25 0 -25 -110 0 -110 0 0 -114 c0 -107 1
-116 22 -130 12 -9 37 -16 55 -16 26 0 33 -4 33 -20 0 -19 -7 -20 -150 -20
-143 0 -150 1 -150 20 0 15 7 20 29 20 60 0 61 6 61 290 0 284 -1 290 -61 290
-22 0 -29 5 -29 20 0 19 7 20 240 20 l240 0 0 -80z m1367 52 c125 -66 117
-242 -14 -310 l-32 -17 79 -121 c77 -118 105 -144 151 -144 46 0 56 19 169
320 l113 300 38 0 c36 0 38 -2 57 -52 11 -29 59 -161 107 -293 49 -132 95
-248 103 -257 8 -10 26 -18 39 -18 16 0 23 -6 23 -20 0 -19 -7 -20 -130 -20
-123 0 -130 1 -130 20 0 14 7 20 23 20 54 1 63 38 29 125 l-20 50 -122 0 -123
0 -18 -50 c-33 -94 -24 -125 37 -125 17 0 24 -6 24 -20 0 -19 -7 -20 -160 -20
-114 0 -170 4 -194 14 -26 11 -50 40 -112 140 -78 125 -79 126 -116 126 l-38
0 0 -104 c0 -116 9 -136 61 -136 22 0 29 -5 29 -20 0 -19 -7 -20 -140 -20
-133 0 -140 1 -140 20 0 15 7 20 29 20 60 0 61 6 61 290 0 284 -1 290 -61 290
-23 0 -29 4 -29 21 0 20 3 21 183 17 166 -3 186 -5 224 -26z m1218 17 c92 -26
148 -126 127 -228 -22 -105 -93 -158 -227 -168 l-75 -6 0 -86 c0 -47 4 -92 9
-100 5 -7 29 -16 55 -18 36 -5 46 -9 46 -24 0 -18 -10 -19 -150 -19 -143 0
-150 1 -150 20 0 14 7 20 23 20 12 0 33 7 45 16 22 15 22 18 22 274 0 284 -1
290 -61 290 -22 0 -29 5 -29 20 0 19 7 20 163 20 89 0 180 -5 202 -11z m560 0
c92 -26 148 -126 127 -228 -22 -105 -93 -158 -227 -168 l-75 -6 0 -86 c0 -47
4 -92 9 -100 5 -7 29 -16 55 -18 36 -5 46 -9 46 -24 0 -18 -10 -19 -150 -19
-143 0 -150 1 -150 20 0 14 7 20 23 20 12 0 33 7 45 16 22 15 22 18 22 274 0
284 -1 290 -61 290 -22 0 -29 5 -29 20 0 19 7 20 163 20 89 0 180 -5 202 -11z
m475 -9 c0 -14 -7 -20 -23 -20 -12 0 -33 -7 -45 -16 -22 -15 -22 -17 -22 -285
l0 -269 109 0 c105 0 110 1 129 25 11 13 22 47 26 75 6 45 9 50 31 50 25 0 25
0 25 -100 l0 -100 -255 0 c-248 0 -255 1 -255 20 0 14 7 20 23 20 12 0 33 7
45 16 22 15 22 18 22 274 0 256 0 259 -22 274 -12 9 -33 16 -45 16 -16 0 -23
6 -23 20 0 19 7 20 140 20 133 0 140 -1 140 -20z m580 0 c0 -14 -7 -20 -23
-20 -12 0 -33 -7 -45 -16 -22 -15 -22 -18 -22 -274 0 -256 0 -259 22 -274 12
-9 33 -16 45 -16 16 0 23 -6 23 -20 0 -19 -7 -20 -140 -20 -133 0 -140 1 -140
20 0 14 7 20 23 20 12 0 33 7 45 16 22 15 22 18 22 274 0 256 0 259 -22 274
-12 9 -33 16 -45 16 -16 0 -23 6 -23 20 0 19 7 20 140 20 133 0 140 -1 140
-20z m400 -230 c89 -137 164 -250 166 -250 2 0 4 95 4 210 0 197 -1 211 -20
230 -11 11 -31 20 -45 20 -18 0 -25 5 -25 20 0 19 7 20 120 20 113 0 120 -1
120 -20 0 -15 -7 -20 -29 -20 -61 0 -61 -2 -61 -326 l0 -294 -37 0 -38 1 -169
259 c-93 143 -170 260 -172 260 -2 0 -4 -99 -4 -220 0 -207 1 -221 20 -240 11
-11 31 -20 45 -20 18 0 25 -5 25 -20 0 -19 -7 -20 -120 -20 -113 0 -120 1
-120 20 0 14 7 20 23 20 12 0 33 7 45 16 22 15 22 18 22 274 0 284 -1 290 -61
290 -22 0 -29 5 -29 20 0 19 7 20 89 20 l89 0 162 -250z"/>
<path d="M15458 14318 c-569 -986 -1034 -1794 -1033 -1795 1 -2 48 7 106 18
280 54 1592 299 1604 299 9 0 14 -12 13 -39 0 -21 4 -54 10 -72 6 -19 14 -58
17 -88 4 -30 11 -65 16 -78 5 -13 6 -23 3 -23 -4 0 -1 -6 6 -14 6 -8 11 -23
10 -33 -1 -10 -1 -20 0 -23 3 -8 9 -53 11 -87 1 -18 5 -33 8 -33 4 0 7 -13 7
-30 1 -16 5 -37 9 -47 4 -10 10 -34 12 -53 2 -19 9 -53 15 -75 13 -47 15 -56
23 -113 3 -23 10 -53 15 -67 6 -15 6 -26 -1 -30 -5 -4 -6 -12 -2 -18 4 -7 8
-16 9 -22 1 -5 7 -32 13 -59 7 -27 10 -50 9 -51 -3 -2 -522 81 -1498 239 -354
58 -645 104 -646 103 -1 -1 -612 -1059 -1357 -2352 l-1356 -2350 2509 -3
c1381 -1 3639 -1 5020 0 l2509 3 -323 560 c-600 1040 -3117 5400 -3906 6768
-430 746 -786 1357 -790 1357 -4 0 -473 -807 -1042 -1792z"/>
<path d="M15846 6450 c-38 -12 -73 -46 -99 -95 -20 -36 -22 -56 -22 -185 0
-130 2 -149 22 -186 45 -84 122 -118 210 -95 96 26 138 126 131 310 -4 101 -8
123 -31 168 -17 33 -39 59 -58 68 -37 20 -115 27 -153 15z"/>
<path d="M10890 6170 l0 -280 68 0 c71 0 133 22 164 56 43 49 62 115 62 219 1
200 -66 284 -226 285 l-68 0 0 -280z"/>
<path d="M11626 6380 c-3 -8 -23 -64 -45 -125 -21 -60 -42 -118 -46 -127 -7
-16 2 -18 95 -18 92 0 101 2 96 18 -37 116 -95 264 -100 252z"/>
<path d="M12190 6309 l0 -142 65 5 c106 9 135 40 135 144 0 100 -37 134 -146
134 l-54 0 0 -141z"/>
<path d="M14290 6170 l0 -280 68 0 c71 0 133 22 164 56 43 49 62 115 62 219 1
200 -66 284 -226 285 l-68 0 0 -280z"/>
<path d="M17910 6309 l0 -142 65 5 c106 9 135 40 135 144 0 100 -37 134 -146
134 l-54 0 0 -141z"/>
<path d="M18606 6380 c-3 -8 -23 -64 -45 -125 -21 -60 -42 -118 -46 -127 -7
-16 2 -18 95 -18 92 0 101 2 96 18 -37 116 -95 264 -100 252z"/>
<path d="M19170 6295 l0 -158 62 6 c108 10 140 50 136 169 -3 69 -6 81 -30
105 -24 23 -38 28 -98 31 l-70 4 0 -157z"/>
<path d="M19730 6295 l0 -158 62 6 c108 10 140 50 136 169 -3 69 -6 81 -30
105 -24 23 -38 28 -98 31 l-70 4 0 -157z"/>
</g>
</svg>
